<svg width="20" height="22" viewBox="0 0 20 22" fill="none" xmlns="http://www.w3.org/2000/svg">
<path d="M9.99964 2.86893e-07C11.3069 -0.000400083 12.5799 0.418257 13.6317 1.19452C14.6835 1.97079 15.4588 3.06378 15.8438 4.31307C16.2288 5.56236 16.2031 6.90216 15.7707 8.13582C15.3382 9.36947 14.5217 10.432 13.4409 11.1675C15.3168 11.8555 16.9438 13.0892 18.1126 14.7098C19.2813 16.3304 19.9383 18.2637 19.9989 20.2609C20.0046 20.3717 19.9881 20.4826 19.9503 20.587C19.9125 20.6913 19.8543 20.7871 19.7791 20.8687C19.7038 20.9503 19.613 21.016 19.512 21.062C19.411 21.1081 19.3018 21.1335 19.1908 21.1367C19.0799 21.14 18.9694 21.121 18.8658 21.081C18.7623 21.041 18.6678 20.9807 18.5879 20.9037C18.5079 20.8267 18.4442 20.7344 18.4004 20.6325C18.3566 20.5305 18.3336 20.4208 18.3327 20.3098C18.2665 18.1439 17.3596 16.0889 15.8042 14.5803C14.2488 13.0717 12.1671 12.228 10.0002 12.228C7.83334 12.228 5.75162 13.0717 4.19619 14.5803C2.64076 16.0889 1.73385 18.1439 1.66766 20.3098C1.66103 20.5309 1.56684 20.7403 1.40581 20.8919C1.24478 21.0436 1.0301 21.125 0.809009 21.1184C0.587913 21.1118 0.378508 21.0176 0.22686 20.8565C0.0752115 20.6955 -0.00625739 20.4808 0.000375486 20.2597C0.0612293 18.2628 0.718303 16.3297 1.88703 14.7094C3.05576 13.089 4.68267 11.8554 6.55837 11.1675C5.47762 10.432 4.66108 9.36947 4.22861 8.13582C3.79614 6.90216 3.77051 5.56236 4.15549 4.31307C4.54046 3.06378 5.31575 1.97079 6.36759 1.19452C7.41942 0.418257 8.69238 -0.000400083 9.99964 2.86893e-07ZM5.55355 6.11338C5.55355 7.29256 6.02198 8.42344 6.85578 9.25725C7.68958 10.0911 8.82047 10.5595 9.99964 10.5595C11.1788 10.5595 12.3097 10.0911 13.1435 9.25725C13.9773 8.42344 14.4457 7.29256 14.4457 6.11338C14.4457 4.9342 13.9773 3.80332 13.1435 2.96952C12.3097 2.13571 11.1788 1.66729 9.99964 1.66729C8.82047 1.66729 7.68958 2.13571 6.85578 2.96952C6.02198 3.80332 5.55355 4.9342 5.55355 6.11338Z" fill="black"/>
</svg>
