<svg width="21" height="19" viewBox="0 0 21 19" fill="none" xmlns="http://www.w3.org/2000/svg">
<path d="M7.16316 0.38324C8.96209 0.38324 10.4191 1.84029 10.4191 3.63922V4.29042C10.4191 4.64857 10.1261 4.94161 9.76794 4.94161C7.96901 4.94161 6.51196 3.48456 6.51196 1.68563V1.03444C6.51196 0.676278 6.805 0.38324 7.16316 0.38324ZM2.27919 1.68563H4.23277C4.77408 1.68563 5.20957 2.12112 5.20957 2.66243C5.20957 3.20373 4.77408 3.63922 4.23277 3.63922H2.27919C1.73788 3.63922 1.30239 3.20373 1.30239 2.66243C1.30239 2.12112 1.73788 1.68563 2.27919 1.68563ZM0.976794 4.61601H5.53517C6.07647 4.61601 6.51196 5.0515 6.51196 5.59281C6.51196 6.13411 6.07647 6.5696 5.53517 6.5696H0.976794C0.435487 6.5696 0 6.13411 0 5.59281C0 5.0515 0.435487 4.61601 0.976794 4.61601ZM1.30239 8.52319C1.30239 7.98188 1.73788 7.5464 2.27919 7.5464H4.23277C4.77408 7.5464 5.20957 7.98188 5.20957 8.52319C5.20957 9.0645 4.77408 9.49998 4.23277 9.49998H2.27919C1.73788 9.49998 1.30239 9.0645 1.30239 8.52319ZM11.0703 1.03444C11.0703 0.676278 11.3634 0.38324 11.7215 0.38324C13.5205 0.38324 14.9775 1.84029 14.9775 3.63922V4.29042C14.9775 4.64857 14.6845 4.94161 14.3263 4.94161C12.5274 4.94161 11.0703 3.48456 11.0703 1.68563V1.03444ZM16.2799 0.38324C18.0788 0.38324 19.5359 1.84029 19.5359 3.63922V4.29042C19.5359 4.64857 19.2428 4.94161 18.8847 4.94161C17.0858 4.94161 15.6287 3.48456 15.6287 1.68563V1.03444C15.6287 0.676278 15.9217 0.38324 16.2799 0.38324ZM19.5359 6.8952V7.5464C19.5359 9.34532 18.0788 10.8024 16.2799 10.8024C15.9217 10.8024 15.6287 10.5093 15.6287 10.1512V9.49998C15.6287 7.70105 17.0858 6.244 18.8847 6.244C19.2428 6.244 19.5359 6.53704 19.5359 6.8952ZM14.3263 6.244C14.6845 6.244 14.9775 6.53704 14.9775 6.8952V7.5464C14.9775 9.34532 13.5205 10.8024 11.7215 10.8024C11.3634 10.8024 11.0703 10.5093 11.0703 10.1512V9.49998C11.0703 7.70105 12.5274 6.244 14.3263 6.244ZM10.4191 6.8952V7.5464C10.4191 9.34532 8.96209 10.8024 7.16316 10.8024C6.805 10.8024 6.51196 10.5093 6.51196 10.1512V9.49998C6.51196 7.70105 7.96901 6.244 9.76794 6.244C10.1261 6.244 10.4191 6.53704 10.4191 6.8952ZM0.142449 13.2281C0.0651196 12.6298 0.529097 12.1048 1.13145 12.1048H19.7068C20.3092 12.1048 20.7732 12.6298 20.6999 13.2281C20.4435 15.2712 18.8928 16.8666 16.9311 17.2329V17.3143C16.9311 18.0347 16.3491 18.6167 15.6287 18.6167H5.20957C4.48918 18.6167 3.90718 18.0347 3.90718 17.3143V17.2329C1.94545 16.8666 0.394788 15.2712 0.142449 13.2281Z" fill="#F39D1A"/>
</svg>
